<?xml version="1.0" standalone="no"?>
<!DOCTYPE svg PUBLIC "-//W3C//DTD SVG 20010904//EN"
 "http://www.w3.org/TR/2001/REC-SVG-20010904/DTD/svg10.dtd">
<svg version="1.0" xmlns="http://www.w3.org/2000/svg"
 width="260.000000pt" height="260.000000pt" viewBox="0 0 260.000000 260.000000"
 preserveAspectRatio="xMidYMid meet">
<metadata>
Created by potrace 1.11, written by Peter Selinger 2001-2013
</metadata>
<g transform="translate(0.000000,260.000000) scale(0.100000,-0.100000)"
fill="#000000" stroke="none">
<path d="M410 2429 l0 -172 -69 -72 c-225 -237 -341 -539 -341 -885 0 -349
117 -651 346 -890 l74 -77 0 -142 0 -141 150 0 150 0 0 40 0 40 38 -19 c64
-32 191 -72 294 -92 86 -16 145 -19 448 -19 193 0 350 3 350 6 0 3 -13 23 -30
43 l-29 38 72 34 c129 62 247 146 358 258 258 258 379 553 379 921 0 368 -122
663 -379 921 -151 150 -305 248 -495 314 -300 103 -712 83 -968 -46 -28 -14
-38 -16 -38 -7 0 12 -269 118 -297 118 -10 0 -13 -41 -13 -171z m1097 -18
c162 -32 269 -75 410 -166 318 -207 513 -566 513 -945 0 -380 -195 -737 -516
-946 -84 -55 -202 -114 -226 -114 -10 0 -254 321 -570 750 l-28 37 318 338
c174 186 319 341 320 346 2 5 -81 9 -185 9 l-188 -1 -277 -327 c-153 -180
-296 -351 -318 -381 l-40 -55 0 657 0 657 53 30 c196 112 495 158 734 111z
m-1095 -1144 l3 -668 -21 26 c-47 59 -119 191 -151 277 -94 249 -97 532 -8
778 34 94 55 135 119 235 47 74 51 78 53 50 1 -16 4 -331 5 -698z m693 -758
c127 -176 232 -325 233 -330 6 -16 -143 -10 -245 10 -113 22 -245 68 -320 111
l-53 30 0 168 0 167 73 83 c39 45 74 82 77 82 3 -1 109 -145 235 -321z"/>
</g>
</svg>
